<?xml version="1.0" encoding="utf-8" standalone="no"?>
<!DOCTYPE svg PUBLIC "-//W3C//DTD SVG 1.1//EN"
  "http://www.w3.org/Graphics/SVG/1.1/DTD/svg11.dtd">
<svg xmlns:xlink="http://www.w3.org/1999/xlink" width="753.086875pt" height="460.786603pt" viewBox="0 0 753.086875 460.786603" xmlns="http://www.w3.org/2000/svg" version="1.1">
 <metadata>
  <rdf:RDF xmlns:dc="http://purl.org/dc/elements/1.1/" xmlns:cc="http://creativecommons.org/ns#" xmlns:rdf="http://www.w3.org/1999/02/22-rdf-syntax-ns#">
   <cc:Work>
    <dc:type rdf:resource="http://purl.org/dc/dcmitype/StillImage"/>
    <dc:date>2026-01-12T06:05:37.004268</dc:date>
    <dc:format>image/svg+xml</dc:format>
    <dc:creator>
     <cc:Agent>
      <dc:title>Matplotlib v3.10.8, https://matplotlib.org/</dc:title>
     </cc:Agent>
    </dc:creator>
   </cc:Work>
  </rdf:RDF>
 </metadata>
 <defs>
  <style type="text/css">*{stroke-linejoin: round; stroke-linecap: butt}</style>
 </defs>
 <g id="figure_1">
  <g id="patch_1">
   <path d="M 0 460.786603 
L 753.086875 460.786603 
L 753.086875 0 
L 0 0 
z
" style="fill: #ffffff"/>
  </g>
  <g id="axes_1">
   <g id="patch_2">
    <path d="M 76.286875 417.0375 
L 745.886875 417.0375 
L 745.886875 25.3575 
L 76.286875 25.3575 
z
" style="fill: #ffffff"/>
   </g>
   <g id="matplotlib.axis_1">
    <g id="xtick_1">
     <g id="line2d_1">
      <defs>
       <path id="maf5fc05be9" d="M 0 0 
L 0 3.5 
" style="stroke: #000000; stroke-width: 0.8"/>
      </defs>
      <g>
       <use xlink:href="#maf5fc05be9" x="106.723239" y="417.0375" style="stroke: #000000; stroke-width: 0.8"/>
      </g>
     </g>
     <g id="text_1">
      <!-- 1960 -->
      <g transform="translate(74.410972 451.065116) rotate(-30) scale(0.14 -0.14)">
       <defs>
        <path id="DejaVuSans-31" d="M 794 531 
L 1825 531 
L 1825 4091 
L 703 3866 
L 703 4441 
L 1819 4666 
L 2450 4666 
L 2450 531 
L 3481 531 
L 3481 0 
L 794 0 
L 794 531 
z
" transform="scale(0.015625)"/>
        <path id="DejaVuSans-39" d="M 703 97 
L 703 672 
Q 941 559 1184 500 
Q 1428 441 1663 441 
Q 2288 441 2617 861 
Q 2947 1281 2994 2138 
Q 2813 1869 2534 1725 
Q 2256 1581 1919 1581 
Q 1219 1581 811 2004 
Q 403 2428 403 3163 
Q 403 3881 828 4315 
Q 1253 4750 1959 4750 
Q 2769 4750 3195 4129 
Q 3622 3509 3622 2328 
Q 3622 1225 3098 567 
Q 2575 -91 1691 -91 
Q 1453 -91 1209 -44 
Q 966 3 703 97 
z
M 1959 2075 
Q 2384 2075 2632 2365 
Q 2881 2656 2881 3163 
Q 2881 3666 2632 3958 
Q 2384 4250 1959 4250 
Q 1534 4250 1286 3958 
Q 1038 3666 1038 3163 
Q 1038 2656 1286 2365 
Q 1534 2075 1959 2075 
z
" transform="scale(0.015625)"/>
        <path id="DejaVuSans-36" d="M 2113 2584 
Q 1688 2584 1439 2293 
Q 1191 2003 1191 1497 
Q 1191 994 1439 701 
Q 1688 409 2113 409 
Q 2538 409 2786 701 
Q 3034 994 3034 1497 
Q 3034 2003 2786 2293 
Q 2538 2584 2113 2584 
z
M 3366 4563 
L 3366 3988 
Q 3128 4100 2886 4159 
Q 2644 4219 2406 4219 
Q 1781 4219 1451 3797 
Q 1122 3375 1075 2522 
Q 1259 2794 1537 2939 
Q 1816 3084 2150 3084 
Q 2853 3084 3261 2657 
Q 3669 2231 3669 1497 
Q 3669 778 3244 343 
Q 2819 -91 2113 -91 
Q 1303 -91 875 529 
Q 447 1150 447 2328 
Q 447 3434 972 4092 
Q 1497 4750 2381 4750 
Q 2619 4750 2861 4703 
Q 3103 4656 3366 4563 
z
" transform="scale(0.015625)"/>
        <path id="DejaVuSans-30" d="M 2034 4250 
Q 1547 4250 1301 3770 
Q 1056 3291 1056 2328 
Q 1056 1369 1301 889 
Q 1547 409 2034 409 
Q 2525 409 2770 889 
Q 3016 1369 3016 2328 
Q 3016 3291 2770 3770 
Q 2525 4250 2034 4250 
z
M 2034 4750 
Q 2819 4750 3233 4129 
Q 3647 3509 3647 2328 
Q 3647 1150 3233 529 
Q 2819 -91 2034 -91 
Q 1250 -91 836 529 
Q 422 1150 422 2328 
Q 422 3509 836 4129 
Q 1250 4750 2034 4750 
z
" transform="scale(0.015625)"/>
       </defs>
       <use xlink:href="#DejaVuSans-31"/>
       <use xlink:href="#DejaVuSans-39" transform="translate(63.623047 0)"/>
       <use xlink:href="#DejaVuSans-36" transform="translate(127.246094 0)"/>
       <use xlink:href="#DejaVuSans-30" transform="translate(190.869141 0)"/>
      </g>
     </g>
    </g>
    <g id="xtick_2">
     <g id="line2d_2">
      <g>
       <use xlink:href="#maf5fc05be9" x="201.849895" y="417.0375" style="stroke: #000000; stroke-width: 0.8"/>
      </g>
     </g>
     <g id="text_2">
      <!-- 1970 -->
      <g transform="translate(169.537629 451.065116) rotate(-30) scale(0.14 -0.14)">
       <defs>
        <path id="DejaVuSans-37" d="M 525 4666 
L 3525 4666 
L 3525 4397 
L 1831 0 
L 1172 0 
L 2766 4134 
L 525 4134 
L 525 4666 
z
" transform="scale(0.015625)"/>
       </defs>
       <use xlink:href="#DejaVuSans-31"/>
       <use xlink:href="#DejaVuSans-39" transform="translate(63.623047 0)"/>
       <use xlink:href="#DejaVuSans-37" transform="translate(127.246094 0)"/>
       <use xlink:href="#DejaVuSans-30" transform="translate(190.869141 0)"/>
      </g>
     </g>
    </g>
    <g id="xtick_3">
     <g id="line2d_3">
      <g>
       <use xlink:href="#maf5fc05be9" x="296.950511" y="417.0375" style="stroke: #000000; stroke-width: 0.8"/>
      </g>
     </g>
     <g id="text_3">
      <!-- 1980 -->
      <g transform="translate(264.638245 451.065116) rotate(-30) scale(0.14 -0.14)">
       <defs>
        <path id="DejaVuSans-38" d="M 2034 2216 
Q 1584 2216 1326 1975 
Q 1069 1734 1069 1313 
Q 1069 891 1326 650 
Q 1584 409 2034 409 
Q 2484 409 2743 651 
Q 3003 894 3003 1313 
Q 3003 1734 2745 1975 
Q 2488 2216 2034 2216 
z
M 1403 2484 
Q 997 2584 770 2862 
Q 544 3141 544 3541 
Q 544 4100 942 4425 
Q 1341 4750 2034 4750 
Q 2731 4750 3128 4425 
Q 3525 4100 3525 3541 
Q 3525 3141 3298 2862 
Q 3072 2584 2669 2484 
Q 3125 2378 3379 2068 
Q 3634 1759 3634 1313 
Q 3634 634 3220 271 
Q 2806 -91 2034 -91 
Q 1263 -91 848 271 
Q 434 634 434 1313 
Q 434 1759 690 2068 
Q 947 2378 1403 2484 
z
M 1172 3481 
Q 1172 3119 1398 2916 
Q 1625 2713 2034 2713 
Q 2441 2713 2670 2916 
Q 2900 3119 2900 3481 
Q 2900 3844 2670 4047 
Q 2441 4250 2034 4250 
Q 1625 4250 1398 4047 
Q 1172 3844 1172 3481 
z
" transform="scale(0.015625)"/>
       </defs>
       <use xlink:href="#DejaVuSans-31"/>
       <use xlink:href="#DejaVuSans-39" transform="translate(63.623047 0)"/>
       <use xlink:href="#DejaVuSans-38" transform="translate(127.246094 0)"/>
       <use xlink:href="#DejaVuSans-30" transform="translate(190.869141 0)"/>
      </g>
     </g>
    </g>
    <g id="xtick_4">
     <g id="line2d_4">
      <g>
       <use xlink:href="#maf5fc05be9" x="392.077168" y="417.0375" style="stroke: #000000; stroke-width: 0.8"/>
      </g>
     </g>
     <g id="text_4">
      <!-- 1990 -->
      <g transform="translate(359.764902 451.065116) rotate(-30) scale(0.14 -0.14)">
       <use xlink:href="#DejaVuSans-31"/>
       <use xlink:href="#DejaVuSans-39" transform="translate(63.623047 0)"/>
       <use xlink:href="#DejaVuSans-39" transform="translate(127.246094 0)"/>
       <use xlink:href="#DejaVuSans-30" transform="translate(190.869141 0)"/>
      </g>
     </g>
    </g>
    <g id="xtick_5">
     <g id="line2d_5">
      <g>
       <use xlink:href="#maf5fc05be9" x="487.177784" y="417.0375" style="stroke: #000000; stroke-width: 0.8"/>
      </g>
     </g>
     <g id="text_5">
      <!-- 2000 -->
      <g transform="translate(454.865518 451.065116) rotate(-30) scale(0.14 -0.14)">
       <defs>
        <path id="DejaVuSans-32" d="M 1228 531 
L 3431 531 
L 3431 0 
L 469 0 
L 469 531 
Q 828 903 1448 1529 
Q 2069 2156 2228 2338 
Q 2531 2678 2651 2914 
Q 2772 3150 2772 3378 
Q 2772 3750 2511 3984 
Q 2250 4219 1831 4219 
Q 1534 4219 1204 4116 
Q 875 4013 500 3803 
L 500 4441 
Q 881 4594 1212 4672 
Q 1544 4750 1819 4750 
Q 2544 4750 2975 4387 
Q 3406 4025 3406 3419 
Q 3406 3131 3298 2873 
Q 3191 2616 2906 2266 
Q 2828 2175 2409 1742 
Q 1991 1309 1228 531 
z
" transform="scale(0.015625)"/>
       </defs>
       <use xlink:href="#DejaVuSans-32"/>
       <use xlink:href="#DejaVuSans-30" transform="translate(63.623047 0)"/>
       <use xlink:href="#DejaVuSans-30" transform="translate(127.246094 0)"/>
       <use xlink:href="#DejaVuSans-30" transform="translate(190.869141 0)"/>
      </g>
     </g>
    </g>
    <g id="xtick_6">
     <g id="line2d_6">
      <g>
       <use xlink:href="#maf5fc05be9" x="582.304441" y="417.0375" style="stroke: #000000; stroke-width: 0.8"/>
      </g>
     </g>
     <g id="text_6">
      <!-- 2010 -->
      <g transform="translate(549.992174 451.065116) rotate(-30) scale(0.14 -0.14)">
       <use xlink:href="#DejaVuSans-32"/>
       <use xlink:href="#DejaVuSans-30" transform="translate(63.623047 0)"/>
       <use xlink:href="#DejaVuSans-31" transform="translate(127.246094 0)"/>
       <use xlink:href="#DejaVuSans-30" transform="translate(190.869141 0)"/>
      </g>
     </g>
    </g>
    <g id="xtick_7">
     <g id="line2d_7">
      <g>
       <use xlink:href="#maf5fc05be9" x="677.405057" y="417.0375" style="stroke: #000000; stroke-width: 0.8"/>
      </g>
     </g>
     <g id="text_7">
      <!-- 2020 -->
      <g transform="translate(645.09279 451.065116) rotate(-30) scale(0.14 -0.14)">
       <use xlink:href="#DejaVuSans-32"/>
       <use xlink:href="#DejaVuSans-30" transform="translate(63.623047 0)"/>
       <use xlink:href="#DejaVuSans-32" transform="translate(127.246094 0)"/>
       <use xlink:href="#DejaVuSans-30" transform="translate(190.869141 0)"/>
      </g>
     </g>
    </g>
   </g>
   <g id="matplotlib.axis_2">
    <g id="ytick_1">
     <g id="line2d_8">
      <defs>
       <path id="m3ad6656148" d="M 0 0 
L -3.5 0 
" style="stroke: #000000; stroke-width: 0.8"/>
      </defs>
      <g>
       <use xlink:href="#m3ad6656148" x="76.286875" y="399.280303" style="stroke: #000000; stroke-width: 0.8"/>
      </g>
     </g>
     <g id="text_8">
      <!-- 0 -->
      <g transform="translate(60.379375 404.59921) scale(0.14 -0.14)">
       <use xlink:href="#DejaVuSans-30"/>
      </g>
     </g>
    </g>
    <g id="ytick_2">
     <g id="line2d_9">
      <g>
       <use xlink:href="#m3ad6656148" x="76.286875" y="337.348595" style="stroke: #000000; stroke-width: 0.8"/>
      </g>
     </g>
     <g id="text_9">
      <!-- 5000 -->
      <g transform="translate(33.656875 342.667501) scale(0.14 -0.14)">
       <defs>
        <path id="DejaVuSans-35" d="M 691 4666 
L 3169 4666 
L 3169 4134 
L 1269 4134 
L 1269 2991 
Q 1406 3038 1543 3061 
Q 1681 3084 1819 3084 
Q 2600 3084 3056 2656 
Q 3513 2228 3513 1497 
Q 3513 744 3044 326 
Q 2575 -91 1722 -91 
Q 1428 -91 1123 -41 
Q 819 9 494 109 
L 494 744 
Q 775 591 1075 516 
Q 1375 441 1709 441 
Q 2250 441 2565 725 
Q 2881 1009 2881 1497 
Q 2881 1984 2565 2268 
Q 2250 2553 1709 2553 
Q 1456 2553 1204 2497 
Q 953 2441 691 2322 
L 691 4666 
z
" transform="scale(0.015625)"/>
       </defs>
       <use xlink:href="#DejaVuSans-35"/>
       <use xlink:href="#DejaVuSans-30" transform="translate(63.623047 0)"/>
       <use xlink:href="#DejaVuSans-30" transform="translate(127.246094 0)"/>
       <use xlink:href="#DejaVuSans-30" transform="translate(190.869141 0)"/>
      </g>
     </g>
    </g>
    <g id="ytick_3">
     <g id="line2d_10">
      <g>
       <use xlink:href="#m3ad6656148" x="76.286875" y="275.416886" style="stroke: #000000; stroke-width: 0.8"/>
      </g>
     </g>
     <g id="text_10">
      <!-- 10000 -->
      <g transform="translate(24.749375 280.735793) scale(0.14 -0.14)">
       <use xlink:href="#DejaVuSans-31"/>
       <use xlink:href="#DejaVuSans-30" transform="translate(63.623047 0)"/>
       <use xlink:href="#DejaVuSans-30" transform="translate(127.246094 0)"/>
       <use xlink:href="#DejaVuSans-30" transform="translate(190.869141 0)"/>
       <use xlink:href="#DejaVuSans-30" transform="translate(254.492188 0)"/>
      </g>
     </g>
    </g>
    <g id="ytick_4">
     <g id="line2d_11">
      <g>
       <use xlink:href="#m3ad6656148" x="76.286875" y="213.485178" style="stroke: #000000; stroke-width: 0.8"/>
      </g>
     </g>
     <g id="text_11">
      <!-- 15000 -->
      <g transform="translate(24.749375 218.804084) scale(0.14 -0.14)">
       <use xlink:href="#DejaVuSans-31"/>
       <use xlink:href="#DejaVuSans-35" transform="translate(63.623047 0)"/>
       <use xlink:href="#DejaVuSans-30" transform="translate(127.246094 0)"/>
       <use xlink:href="#DejaVuSans-30" transform="translate(190.869141 0)"/>
       <use xlink:href="#DejaVuSans-30" transform="translate(254.492188 0)"/>
      </g>
     </g>
    </g>
    <g id="ytick_5">
     <g id="line2d_12">
      <g>
       <use xlink:href="#m3ad6656148" x="76.286875" y="151.553469" style="stroke: #000000; stroke-width: 0.8"/>
      </g>
     </g>
     <g id="text_12">
      <!-- 20000 -->
      <g transform="translate(24.749375 156.872375) scale(0.14 -0.14)">
       <use xlink:href="#DejaVuSans-32"/>
       <use xlink:href="#DejaVuSans-30" transform="translate(63.623047 0)"/>
       <use xlink:href="#DejaVuSans-30" transform="translate(127.246094 0)"/>
       <use xlink:href="#DejaVuSans-30" transform="translate(190.869141 0)"/>
       <use xlink:href="#DejaVuSans-30" transform="translate(254.492188 0)"/>
      </g>
     </g>
    </g>
    <g id="ytick_6">
     <g id="line2d_13">
      <g>
       <use xlink:href="#m3ad6656148" x="76.286875" y="89.621761" style="stroke: #000000; stroke-width: 0.8"/>
      </g>
     </g>
     <g id="text_13">
      <!-- 25000 -->
      <g transform="translate(24.749375 94.940667) scale(0.14 -0.14)">
       <use xlink:href="#DejaVuSans-32"/>
       <use xlink:href="#DejaVuSans-35" transform="translate(63.623047 0)"/>
       <use xlink:href="#DejaVuSans-30" transform="translate(127.246094 0)"/>
       <use xlink:href="#DejaVuSans-30" transform="translate(190.869141 0)"/>
       <use xlink:href="#DejaVuSans-30" transform="translate(254.492188 0)"/>
      </g>
     </g>
    </g>
    <g id="ytick_7">
     <g id="line2d_14">
      <g>
       <use xlink:href="#m3ad6656148" x="76.286875" y="27.690052" style="stroke: #000000; stroke-width: 0.8"/>
      </g>
     </g>
     <g id="text_14">
      <!-- 30000 -->
      <g transform="translate(24.749375 33.008958) scale(0.14 -0.14)">
       <defs>
        <path id="DejaVuSans-33" d="M 2597 2516 
Q 3050 2419 3304 2112 
Q 3559 1806 3559 1356 
Q 3559 666 3084 287 
Q 2609 -91 1734 -91 
Q 1441 -91 1130 -33 
Q 819 25 488 141 
L 488 750 
Q 750 597 1062 519 
Q 1375 441 1716 441 
Q 2309 441 2620 675 
Q 2931 909 2931 1356 
Q 2931 1769 2642 2001 
Q 2353 2234 1838 2234 
L 1294 2234 
L 1294 2753 
L 1863 2753 
Q 2328 2753 2575 2939 
Q 2822 3125 2822 3475 
Q 2822 3834 2567 4026 
Q 2313 4219 1838 4219 
Q 1578 4219 1281 4162 
Q 984 4106 628 3988 
L 628 4550 
Q 988 4650 1302 4700 
Q 1616 4750 1894 4750 
Q 2613 4750 3031 4423 
Q 3450 4097 3450 3541 
Q 3450 3153 3228 2886 
Q 3006 2619 2597 2516 
z
" transform="scale(0.015625)"/>
       </defs>
       <use xlink:href="#DejaVuSans-33"/>
       <use xlink:href="#DejaVuSans-30" transform="translate(63.623047 0)"/>
       <use xlink:href="#DejaVuSans-30" transform="translate(127.246094 0)"/>
       <use xlink:href="#DejaVuSans-30" transform="translate(190.869141 0)"/>
       <use xlink:href="#DejaVuSans-30" transform="translate(254.492188 0)"/>
      </g>
     </g>
    </g>
    <g id="text_15">
     <!-- Dollars (Billion) -->
     <g transform="translate(17.837813 274.561562) rotate(-90) scale(0.14 -0.14)">
      <defs>
       <path id="DejaVuSans-44" d="M 1259 4147 
L 1259 519 
L 2022 519 
Q 2988 519 3436 956 
Q 3884 1394 3884 2338 
Q 3884 3275 3436 3711 
Q 2988 4147 2022 4147 
L 1259 4147 
z
M 628 4666 
L 1925 4666 
Q 3281 4666 3915 4102 
Q 4550 3538 4550 2338 
Q 4550 1131 3912 565 
Q 3275 0 1925 0 
L 628 0 
L 628 4666 
z
" transform="scale(0.015625)"/>
       <path id="DejaVuSans-6f" d="M 1959 3097 
Q 1497 3097 1228 2736 
Q 959 2375 959 1747 
Q 959 1119 1226 758 
Q 1494 397 1959 397 
Q 2419 397 2687 759 
Q 2956 1122 2956 1747 
Q 2956 2369 2687 2733 
Q 2419 3097 1959 3097 
z
M 1959 3584 
Q 2709 3584 3137 3096 
Q 3566 2609 3566 1747 
Q 3566 888 3137 398 
Q 2709 -91 1959 -91 
Q 1206 -91 779 398 
Q 353 888 353 1747 
Q 353 2609 779 3096 
Q 1206 3584 1959 3584 
z
" transform="scale(0.015625)"/>
       <path id="DejaVuSans-6c" d="M 603 4863 
L 1178 4863 
L 1178 0 
L 603 0 
L 603 4863 
z
" transform="scale(0.015625)"/>
       <path id="DejaVuSans-61" d="M 2194 1759 
Q 1497 1759 1228 1600 
Q 959 1441 959 1056 
Q 959 750 1161 570 
Q 1363 391 1709 391 
Q 2188 391 2477 730 
Q 2766 1069 2766 1631 
L 2766 1759 
L 2194 1759 
z
M 3341 1997 
L 3341 0 
L 2766 0 
L 2766 531 
Q 2569 213 2275 61 
Q 1981 -91 1556 -91 
Q 1019 -91 701 211 
Q 384 513 384 1019 
Q 384 1609 779 1909 
Q 1175 2209 1959 2209 
L 2766 2209 
L 2766 2266 
Q 2766 2663 2505 2880 
Q 2244 3097 1772 3097 
Q 1472 3097 1187 3025 
Q 903 2953 641 2809 
L 641 3341 
Q 956 3463 1253 3523 
Q 1550 3584 1831 3584 
Q 2591 3584 2966 3190 
Q 3341 2797 3341 1997 
z
" transform="scale(0.015625)"/>
       <path id="DejaVuSans-72" d="M 2631 2963 
Q 2534 3019 2420 3045 
Q 2306 3072 2169 3072 
Q 1681 3072 1420 2755 
Q 1159 2438 1159 1844 
L 1159 0 
L 581 0 
L 581 3500 
L 1159 3500 
L 1159 2956 
Q 1341 3275 1631 3429 
Q 1922 3584 2338 3584 
Q 2397 3584 2469 3576 
Q 2541 3569 2628 3553 
L 2631 2963 
z
" transform="scale(0.015625)"/>
       <path id="DejaVuSans-73" d="M 2834 3397 
L 2834 2853 
Q 2591 2978 2328 3040 
Q 2066 3103 1784 3103 
Q 1356 3103 1142 2972 
Q 928 2841 928 2578 
Q 928 2378 1081 2264 
Q 1234 2150 1697 2047 
L 1894 2003 
Q 2506 1872 2764 1633 
Q 3022 1394 3022 966 
Q 3022 478 2636 193 
Q 2250 -91 1575 -91 
Q 1294 -91 989 -36 
Q 684 19 347 128 
L 347 722 
Q 666 556 975 473 
Q 1284 391 1588 391 
Q 1994 391 2212 530 
Q 2431 669 2431 922 
Q 2431 1156 2273 1281 
Q 2116 1406 1581 1522 
L 1381 1569 
Q 847 1681 609 1914 
Q 372 2147 372 2553 
Q 372 3047 722 3315 
Q 1072 3584 1716 3584 
Q 2034 3584 2315 3537 
Q 2597 3491 2834 3397 
z
" transform="scale(0.015625)"/>
       <path id="DejaVuSans-20" transform="scale(0.015625)"/>
       <path id="DejaVuSans-28" d="M 1984 4856 
Q 1566 4138 1362 3434 
Q 1159 2731 1159 2009 
Q 1159 1288 1364 580 
Q 1569 -128 1984 -844 
L 1484 -844 
Q 1016 -109 783 600 
Q 550 1309 550 2009 
Q 550 2706 781 3412 
Q 1013 4119 1484 4856 
L 1984 4856 
z
" transform="scale(0.015625)"/>
       <path id="DejaVuSans-42" d="M 1259 2228 
L 1259 519 
L 2272 519 
Q 2781 519 3026 730 
Q 3272 941 3272 1375 
Q 3272 1813 3026 2020 
Q 2781 2228 2272 2228 
L 1259 2228 
z
M 1259 4147 
L 1259 2741 
L 2194 2741 
Q 2656 2741 2882 2914 
Q 3109 3088 3109 3444 
Q 3109 3797 2882 3972 
Q 2656 4147 2194 4147 
L 1259 4147 
z
M 628 4666 
L 2241 4666 
Q 2963 4666 3353 4366 
Q 3744 4066 3744 3513 
Q 3744 3084 3544 2831 
Q 3344 2578 2956 2516 
Q 3422 2416 3680 2098 
Q 3938 1781 3938 1306 
Q 3938 681 3513 340 
Q 3088 0 2303 0 
L 628 0 
L 628 4666 
z
" transform="scale(0.015625)"/>
       <path id="DejaVuSans-69" d="M 603 3500 
L 1178 3500 
L 1178 0 
L 603 0 
L 603 3500 
z
M 603 4863 
L 1178 4863 
L 1178 4134 
L 603 4134 
L 603 4863 
z
" transform="scale(0.015625)"/>
       <path id="DejaVuSans-6e" d="M 3513 2113 
L 3513 0 
L 2938 0 
L 2938 2094 
Q 2938 2591 2744 2837 
Q 2550 3084 2163 3084 
Q 1697 3084 1428 2787 
Q 1159 2491 1159 1978 
L 1159 0 
L 581 0 
L 581 3500 
L 1159 3500 
L 1159 2956 
Q 1366 3272 1645 3428 
Q 1925 3584 2291 3584 
Q 2894 3584 3203 3211 
Q 3513 2838 3513 2113 
z
" transform="scale(0.015625)"/>
       <path id="DejaVuSans-29" d="M 513 4856 
L 1013 4856 
Q 1481 4119 1714 3412 
Q 1947 2706 1947 2009 
Q 1947 1309 1714 600 
Q 1481 -109 1013 -844 
L 513 -844 
Q 928 -128 1133 580 
Q 1338 1288 1338 2009 
Q 1338 2731 1133 3434 
Q 928 4138 513 4856 
z
" transform="scale(0.015625)"/>
      </defs>
      <use xlink:href="#DejaVuSans-44"/>
      <use xlink:href="#DejaVuSans-6f" transform="translate(77.001953 0)"/>
      <use xlink:href="#DejaVuSans-6c" transform="translate(138.183594 0)"/>
      <use xlink:href="#DejaVuSans-6c" transform="translate(165.966797 0)"/>
      <use xlink:href="#DejaVuSans-61" transform="translate(193.75 0)"/>
      <use xlink:href="#DejaVuSans-72" transform="translate(255.029297 0)"/>
      <use xlink:href="#DejaVuSans-73" transform="translate(296.142578 0)"/>
      <use xlink:href="#DejaVuSans-20" transform="translate(348.242188 0)"/>
      <use xlink:href="#DejaVuSans-28" transform="translate(380.029297 0)"/>
      <use xlink:href="#DejaVuSans-42" transform="translate(419.042969 0)"/>
      <use xlink:href="#DejaVuSans-69" transform="translate(487.646484 0)"/>
      <use xlink:href="#DejaVuSans-6c" transform="translate(515.429688 0)"/>
      <use xlink:href="#DejaVuSans-6c" transform="translate(543.212891 0)"/>
      <use xlink:href="#DejaVuSans-69" transform="translate(570.996094 0)"/>
      <use xlink:href="#DejaVuSans-6f" transform="translate(598.779297 0)"/>
      <use xlink:href="#DejaVuSans-6e" transform="translate(659.960938 0)"/>
      <use xlink:href="#DejaVuSans-29" transform="translate(723.339844 0)"/>
     </g>
    </g>
   </g>
   <g id="line2d_15">
    <path d="M 106.723239 399.233864 
L 116.254133 399.229288 
L 125.758986 399.226916 
L 135.26384 399.222944 
L 144.768693 399.215833 
L 154.299587 399.206862 
L 163.804441 399.199035 
L 173.309294 399.187845 
L 182.814148 399.180692 
L 192.345042 399.172751 
L 201.849895 399.156099 
L 211.354749 399.148192 
L 220.859602 399.163686 
L 230.390496 399.201236 
L 239.89535 399.170075 
L 249.400203 399.141197 
L 258.905057 399.117199 
L 268.435951 399.092947 
L 277.940804 399.059684 
L 287.445658 399.036436 
L 296.950511 398.987311 
L 306.481406 398.93224 
L 315.986259 398.899721 
L 325.491112 398.924916 
L 334.995966 398.894446 
L 344.52686 398.894532 
L 354.031714 398.885191 
L 363.536567 398.8672 
L 373.04142 398.803767 
L 382.572315 398.78273 
L 392.077168 398.784721 
L 401.582022 398.715172 
L 411.086875 398.674801 
L 420.617769 398.638567 
L 430.122623 398.632579 
L 439.627476 398.529244 
L 449.13233 398.495998 
L 458.663224 398.506983 
L 468.168077 398.509972 
L 477.672931 398.500288 
L 487.177784 398.048051 
L 496.708678 398.077024 
L 506.213532 398.067392 
L 515.718385 397.888426 
L 525.223239 397.64263 
L 534.754133 397.4817 
L 544.258986 397.275309 
L 553.76384 396.999472 
L 563.268693 396.775739 
L 572.799587 396.959874 
L 582.304441 396.843791 
L 591.809294 396.424179 
L 601.314148 396.182393 
L 610.845042 396.076486 
L 620.349895 395.918768 
L 629.854749 395.564852 
L 639.359602 395.395575 
L 648.890496 395.078788 
L 658.39535 394.869178 
L 667.900203 395.305409 
L 677.405057 395.559129 
L 686.935951 394.963457 
L 696.440804 394.636784 
L 705.945658 395.109991 
L 715.450511 394.67791 
" clip-path="url(#pe98075392f)" style="fill: none; stroke: #008000; stroke-linecap: square"/>
   </g>
   <g id="line2d_16">
    <path d="M 106.723239 398.539027 
L 116.254133 398.658976 
L 125.758986 398.694296 
L 135.26384 398.650926 
L 144.768693 398.539329 
L 154.299587 398.406249 
L 163.804441 398.328363 
L 173.309294 398.37596 
L 182.814148 398.401117 
L 192.345042 398.291281 
L 201.849895 398.131434 
L 211.354749 398.042177 
L 220.859602 397.869847 
L 230.390496 397.561521 
L 239.89535 397.491487 
L 249.400203 397.252813 
L 258.905057 397.370369 
L 268.435951 397.109887 
L 277.940804 397.42497 
L 287.445658 397.068426 
L 296.950511 396.908474 
L 306.481406 396.849877 
L 315.986259 396.735146 
L 325.491112 396.417445 
L 334.995966 396.054369 
L 344.52686 395.439737 
L 354.031714 395.548173 
L 363.536567 395.893194 
L 373.04142 395.404755 
L 382.572315 394.965143 
L 392.077168 394.801895 
L 401.582022 394.517625 
L 411.086875 393.972727 
L 420.617769 393.749092 
L 430.122623 392.25812 
L 439.627476 390.136819 
L 449.13233 388.522469 
L 458.663224 387.293377 
L 468.168077 386.434005 
L 477.672931 385.607724 
L 487.177784 384.122457 
L 496.708678 382.496357 
L 506.213532 380.826863 
L 515.718385 378.422902 
L 525.223239 374.703367 
L 534.754133 370.574321 
L 544.258986 364.703849 
L 553.76384 354.639236 
L 563.268693 341.468956 
L 572.799587 335.000428 
L 582.304441 322.577079 
L 591.809294 304.255297 
L 601.314148 291.845328 
L 610.845042 278.598637 
L 620.349895 267.061888 
L 629.854749 259.552277 
L 639.359602 257.382074 
L 648.890496 243.985813 
L 658.39535 224.041242 
L 667.900203 218.933098 
L 677.405057 213.529593 
L 686.935951 173.827843 
L 696.440804 172.402593 
L 705.945658 172.977423 
L 715.450511 167.113152 
" clip-path="url(#pe98075392f)" style="fill: none; stroke: #ffa500; stroke-linecap: square"/>
   </g>
   <g id="line2d_17">
    <path d="M 106.723239 398.821639 
L 116.254133 398.794357 
L 125.758986 398.758077 
L 135.26384 398.680533 
L 144.768693 398.580719 
L 154.299587 398.542621 
L 163.804441 398.715719 
L 173.309294 398.659315 
L 182.814148 398.622769 
L 192.345042 398.556346 
L 201.849895 398.507117 
L 211.354749 398.446066 
L 220.859602 398.395117 
L 230.390496 398.221052 
L 239.89535 398.047533 
L 249.400203 398.060573 
L 258.905057 398.008022 
L 268.435951 397.775528 
L 277.940804 397.57963 
L 287.445658 397.385249 
L 296.950511 396.972374 
L 306.481406 396.883653 
L 315.986259 396.794171 
L 325.491112 396.576834 
L 334.995966 396.652446 
L 344.52686 396.400336 
L 354.031714 396.196278 
L 363.536567 395.824098 
L 373.04142 395.606642 
L 382.572315 395.613425 
L 392.077168 395.304547 
L 401.582022 395.934686 
L 411.086875 395.71046 
L 420.617769 395.820852 
L 430.122623 395.226565 
L 439.627476 394.817728 
L 449.13233 394.413748 
L 458.663224 394.129226 
L 468.168077 394.061302 
L 477.672931 393.597189 
L 487.177784 393.478596 
L 496.708678 393.267476 
L 506.213532 392.902091 
L 515.718385 391.753115 
L 525.223239 390.496495 
L 534.754133 389.11875 
L 544.258986 387.633923 
L 553.76384 384.20939 
L 563.268693 384.430378 
L 572.799587 382.65922 
L 582.304441 378.525557 
L 591.809294 376.69936 
L 601.314148 376.64256 
L 610.845042 376.282316 
L 620.349895 374.022986 
L 629.854749 373.224539 
L 639.359602 370.856165 
L 648.890496 366.438237 
L 658.39535 365.800893 
L 667.900203 364.157515 
L 677.405057 366.148678 
L 686.935951 360.049407 
L 696.440804 357.834275 
L 705.945658 354.212734 
L 715.450511 350.851051 
" clip-path="url(#pe98075392f)" style="fill: none; stroke: #0000ff; stroke-linecap: square"/>
   </g>
   <g id="line2d_18">
    <path d="M 106.723239 392.567047 
L 116.254133 392.319919 
L 125.758986 391.803419 
L 135.26384 391.389478 
L 144.768693 390.806254 
L 154.299587 390.090816 
L 163.804441 389.209802 
L 173.309294 388.632756 
L 182.814148 387.634355 
L 192.345042 386.677966 
L 201.849895 385.986006 
L 211.354749 384.852073 
L 220.859602 383.43681 
L 230.390496 381.625109 
L 239.89535 380.140396 
L 249.400203 378.410507 
L 258.905057 376.075582 
L 268.435951 373.494095 
L 277.940804 370.152595 
L 287.445658 366.737259 
L 296.950511 363.888722 
L 306.481406 359.556798 
L 315.986259 357.86299 
L 325.491112 354.267867 
L 334.995966 349.269049 
L 344.52686 345.536227 
L 354.031714 342.555429 
L 363.536567 339.141951 
L 373.04142 334.419993 
L 382.572315 329.401766 
L 392.077168 325.418764 
L 401.582022 323.003613 
L 411.086875 318.517305 
L 420.617769 314.327848 
L 430.122623 309.018108 
L 439.627476 304.651762 
L 449.13233 299.283856 
L 458.663224 293.035783 
L 468.168077 287.02514 
L 477.672931 279.985285 
L 487.177784 272.308559 
L 496.708678 268.208905 
L 506.213532 263.908576 
L 515.718385 257.376897 
L 525.223239 247.953974 
L 534.754133 237.772327 
L 544.258986 228.155723 
L 553.76384 219.997583 
L 563.268693 216.335796 
L 572.799587 219.950044 
L 582.304441 212.878687 
L 591.809294 206.05674 
L 601.314148 197.953049 
L 610.845042 190.654784 
L 620.349895 181.891582 
L 629.854749 173.774309 
L 639.359602 167.716272 
L 648.890496 158.027357 
L 658.39535 144.950839 
L 667.900203 134.448227 
L 677.405057 138.418081 
L 686.935951 110.491749 
L 696.440804 82.129895 
L 705.945658 61.23015 
L 715.450511 43.161136 
" clip-path="url(#pe98075392f)" style="fill: none; stroke: #ff0000; stroke-linecap: square"/>
   </g>
   <g id="patch_3">
    <path d="M 76.286875 417.0375 
L 76.286875 25.3575 
" style="fill: none; stroke: #000000; stroke-width: 0.8; stroke-linejoin: miter; stroke-linecap: square"/>
   </g>
   <g id="patch_4">
    <path d="M 745.886875 417.0375 
L 745.886875 25.3575 
" style="fill: none; stroke: #000000; stroke-width: 0.8; stroke-linejoin: miter; stroke-linecap: square"/>
   </g>
   <g id="patch_5">
    <path d="M 76.286875 417.0375 
L 745.886875 417.0375 
" style="fill: none; stroke: #000000; stroke-width: 0.8; stroke-linejoin: miter; stroke-linecap: square"/>
   </g>
   <g id="patch_6">
    <path d="M 76.286875 25.3575 
L 745.886875 25.3575 
" style="fill: none; stroke: #000000; stroke-width: 0.8; stroke-linejoin: miter; stroke-linecap: square"/>
   </g>
   <g id="text_16">
    <!-- Pakistan vs India vs US vs China GDP -->
    <g transform="translate(262.483125 19.3575) scale(0.16 -0.16)">
     <defs>
      <path id="DejaVuSans-50" d="M 1259 4147 
L 1259 2394 
L 2053 2394 
Q 2494 2394 2734 2622 
Q 2975 2850 2975 3272 
Q 2975 3691 2734 3919 
Q 2494 4147 2053 4147 
L 1259 4147 
z
M 628 4666 
L 2053 4666 
Q 2838 4666 3239 4311 
Q 3641 3956 3641 3272 
Q 3641 2581 3239 2228 
Q 2838 1875 2053 1875 
L 1259 1875 
L 1259 0 
L 628 0 
L 628 4666 
z
" transform="scale(0.015625)"/>
      <path id="DejaVuSans-6b" d="M 581 4863 
L 1159 4863 
L 1159 1991 
L 2875 3500 
L 3609 3500 
L 1753 1863 
L 3688 0 
L 2938 0 
L 1159 1709 
L 1159 0 
L 581 0 
L 581 4863 
z
" transform="scale(0.015625)"/>
      <path id="DejaVuSans-74" d="M 1172 4494 
L 1172 3500 
L 2356 3500 
L 2356 3053 
L 1172 3053 
L 1172 1153 
Q 1172 725 1289 603 
Q 1406 481 1766 481 
L 2356 481 
L 2356 0 
L 1766 0 
Q 1100 0 847 248 
Q 594 497 594 1153 
L 594 3053 
L 172 3053 
L 172 3500 
L 594 3500 
L 594 4494 
L 1172 4494 
z
" transform="scale(0.015625)"/>
      <path id="DejaVuSans-76" d="M 191 3500 
L 800 3500 
L 1894 563 
L 2988 3500 
L 3597 3500 
L 2284 0 
L 1503 0 
L 191 3500 
z
" transform="scale(0.015625)"/>
      <path id="DejaVuSans-49" d="M 628 4666 
L 1259 4666 
L 1259 0 
L 628 0 
L 628 4666 
z
" transform="scale(0.015625)"/>
      <path id="DejaVuSans-64" d="M 2906 2969 
L 2906 4863 
L 3481 4863 
L 3481 0 
L 2906 0 
L 2906 525 
Q 2725 213 2448 61 
Q 2172 -91 1784 -91 
Q 1150 -91 751 415 
Q 353 922 353 1747 
Q 353 2572 751 3078 
Q 1150 3584 1784 3584 
Q 2172 3584 2448 3432 
Q 2725 3281 2906 2969 
z
M 947 1747 
Q 947 1113 1208 752 
Q 1469 391 1925 391 
Q 2381 391 2643 752 
Q 2906 1113 2906 1747 
Q 2906 2381 2643 2742 
Q 2381 3103 1925 3103 
Q 1469 3103 1208 2742 
Q 947 2381 947 1747 
z
" transform="scale(0.015625)"/>
      <path id="DejaVuSans-55" d="M 556 4666 
L 1191 4666 
L 1191 1831 
Q 1191 1081 1462 751 
Q 1734 422 2344 422 
Q 2950 422 3222 751 
Q 3494 1081 3494 1831 
L 3494 4666 
L 4128 4666 
L 4128 1753 
Q 4128 841 3676 375 
Q 3225 -91 2344 -91 
Q 1459 -91 1007 375 
Q 556 841 556 1753 
L 556 4666 
z
" transform="scale(0.015625)"/>
      <path id="DejaVuSans-53" d="M 3425 4513 
L 3425 3897 
Q 3066 4069 2747 4153 
Q 2428 4238 2131 4238 
Q 1616 4238 1336 4038 
Q 1056 3838 1056 3469 
Q 1056 3159 1242 3001 
Q 1428 2844 1947 2747 
L 2328 2669 
Q 3034 2534 3370 2195 
Q 3706 1856 3706 1288 
Q 3706 609 3251 259 
Q 2797 -91 1919 -91 
Q 1588 -91 1214 -16 
Q 841 59 441 206 
L 441 856 
Q 825 641 1194 531 
Q 1563 422 1919 422 
Q 2459 422 2753 634 
Q 3047 847 3047 1241 
Q 3047 1584 2836 1778 
Q 2625 1972 2144 2069 
L 1759 2144 
Q 1053 2284 737 2584 
Q 422 2884 422 3419 
Q 422 4038 858 4394 
Q 1294 4750 2059 4750 
Q 2388 4750 2728 4690 
Q 3069 4631 3425 4513 
z
" transform="scale(0.015625)"/>
      <path id="DejaVuSans-43" d="M 4122 4306 
L 4122 3641 
Q 3803 3938 3442 4084 
Q 3081 4231 2675 4231 
Q 1875 4231 1450 3742 
Q 1025 3253 1025 2328 
Q 1025 1406 1450 917 
Q 1875 428 2675 428 
Q 3081 428 3442 575 
Q 3803 722 4122 1019 
L 4122 359 
Q 3791 134 3420 21 
Q 3050 -91 2638 -91 
Q 1578 -91 968 557 
Q 359 1206 359 2328 
Q 359 3453 968 4101 
Q 1578 4750 2638 4750 
Q 3056 4750 3426 4639 
Q 3797 4528 4122 4306 
z
" transform="scale(0.015625)"/>
      <path id="DejaVuSans-68" d="M 3513 2113 
L 3513 0 
L 2938 0 
L 2938 2094 
Q 2938 2591 2744 2837 
Q 2550 3084 2163 3084 
Q 1697 3084 1428 2787 
Q 1159 2491 1159 1978 
L 1159 0 
L 581 0 
L 581 4863 
L 1159 4863 
L 1159 2956 
Q 1366 3272 1645 3428 
Q 1925 3584 2291 3584 
Q 2894 3584 3203 3211 
Q 3513 2838 3513 2113 
z
" transform="scale(0.015625)"/>
      <path id="DejaVuSans-47" d="M 3809 666 
L 3809 1919 
L 2778 1919 
L 2778 2438 
L 4434 2438 
L 4434 434 
Q 4069 175 3628 42 
Q 3188 -91 2688 -91 
Q 1594 -91 976 548 
Q 359 1188 359 2328 
Q 359 3472 976 4111 
Q 1594 4750 2688 4750 
Q 3144 4750 3555 4637 
Q 3966 4525 4313 4306 
L 4313 3634 
Q 3963 3931 3569 4081 
Q 3175 4231 2741 4231 
Q 1884 4231 1454 3753 
Q 1025 3275 1025 2328 
Q 1025 1384 1454 906 
Q 1884 428 2741 428 
Q 3075 428 3337 486 
Q 3600 544 3809 666 
z
" transform="scale(0.015625)"/>
     </defs>
     <use xlink:href="#DejaVuSans-50"/>
     <use xlink:href="#DejaVuSans-61" transform="translate(55.802734 0)"/>
     <use xlink:href="#DejaVuSans-6b" transform="translate(117.082031 0)"/>
     <use xlink:href="#DejaVuSans-69" transform="translate(174.992188 0)"/>
     <use xlink:href="#DejaVuSans-73" transform="translate(202.775391 0)"/>
     <use xlink:href="#DejaVuSans-74" transform="translate(254.875 0)"/>
     <use xlink:href="#DejaVuSans-61" transform="translate(294.083984 0)"/>
     <use xlink:href="#DejaVuSans-6e" transform="translate(355.363281 0)"/>
     <use xlink:href="#DejaVuSans-20" transform="translate(418.742188 0)"/>
     <use xlink:href="#DejaVuSans-76" transform="translate(450.529297 0)"/>
     <use xlink:href="#DejaVuSans-73" transform="translate(509.708984 0)"/>
     <use xlink:href="#DejaVuSans-20" transform="translate(561.808594 0)"/>
     <use xlink:href="#DejaVuSans-49" transform="translate(593.595703 0)"/>
     <use xlink:href="#DejaVuSans-6e" transform="translate(623.087891 0)"/>
     <use xlink:href="#DejaVuSans-64" transform="translate(686.466797 0)"/>
     <use xlink:href="#DejaVuSans-69" transform="translate(749.943359 0)"/>
     <use xlink:href="#DejaVuSans-61" transform="translate(777.726562 0)"/>
     <use xlink:href="#DejaVuSans-20" transform="translate(839.005859 0)"/>
     <use xlink:href="#DejaVuSans-76" transform="translate(870.792969 0)"/>
     <use xlink:href="#DejaVuSans-73" transform="translate(929.972656 0)"/>
     <use xlink:href="#DejaVuSans-20" transform="translate(982.072266 0)"/>
     <use xlink:href="#DejaVuSans-55" transform="translate(1013.859375 0)"/>
     <use xlink:href="#DejaVuSans-53" transform="translate(1087.052734 0)"/>
     <use xlink:href="#DejaVuSans-20" transform="translate(1150.529297 0)"/>
     <use xlink:href="#DejaVuSans-76" transform="translate(1182.316406 0)"/>
     <use xlink:href="#DejaVuSans-73" transform="translate(1241.496094 0)"/>
     <use xlink:href="#DejaVuSans-20" transform="translate(1293.595703 0)"/>
     <use xlink:href="#DejaVuSans-43" transform="translate(1325.382812 0)"/>
     <use xlink:href="#DejaVuSans-68" transform="translate(1395.207031 0)"/>
     <use xlink:href="#DejaVuSans-69" transform="translate(1458.585938 0)"/>
     <use xlink:href="#DejaVuSans-6e" transform="translate(1486.369141 0)"/>
     <use xlink:href="#DejaVuSans-61" transform="translate(1549.748047 0)"/>
     <use xlink:href="#DejaVuSans-20" transform="translate(1611.027344 0)"/>
     <use xlink:href="#DejaVuSans-47" transform="translate(1642.814453 0)"/>
     <use xlink:href="#DejaVuSans-44" transform="translate(1720.304688 0)"/>
     <use xlink:href="#DejaVuSans-50" transform="translate(1797.306641 0)"/>
    </g>
   </g>
   <g id="legend_1">
    <g id="patch_7">
     <path d="M 86.786875 125.42625 
L 236.357969 125.42625 
Q 239.357969 125.42625 239.357969 122.42625 
L 239.357969 35.8575 
Q 239.357969 32.8575 236.357969 32.8575 
L 86.786875 32.8575 
Q 83.786875 32.8575 83.786875 35.8575 
L 83.786875 122.42625 
Q 83.786875 125.42625 86.786875 125.42625 
z
" style="fill: #ffffff; opacity: 0.8; stroke: #cccccc; stroke-linejoin: miter"/>
    </g>
    <g id="line2d_19">
     <path d="M 89.786875 45.005156 
L 104.786875 45.005156 
L 119.786875 45.005156 
" style="fill: none; stroke: #008000; stroke-linecap: square"/>
    </g>
    <g id="text_17">
     <!-- Pakistan -->
     <g transform="translate(131.786875 50.255156) scale(0.15 -0.15)">
      <use xlink:href="#DejaVuSans-50"/>
      <use xlink:href="#DejaVuSans-61" transform="translate(55.802734 0)"/>
      <use xlink:href="#DejaVuSans-6b" transform="translate(117.082031 0)"/>
      <use xlink:href="#DejaVuSans-69" transform="translate(174.992188 0)"/>
      <use xlink:href="#DejaVuSans-73" transform="translate(202.775391 0)"/>
      <use xlink:href="#DejaVuSans-74" transform="translate(254.875 0)"/>
      <use xlink:href="#DejaVuSans-61" transform="translate(294.083984 0)"/>
      <use xlink:href="#DejaVuSans-6e" transform="translate(355.363281 0)"/>
     </g>
    </g>
    <g id="line2d_20">
     <path d="M 89.786875 67.022344 
L 104.786875 67.022344 
L 119.786875 67.022344 
" style="fill: none; stroke: #ffa500; stroke-linecap: square"/>
    </g>
    <g id="text_18">
     <!-- China -->
     <g transform="translate(131.786875 72.272344) scale(0.15 -0.15)">
      <use xlink:href="#DejaVuSans-43"/>
      <use xlink:href="#DejaVuSans-68" transform="translate(69.824219 0)"/>
      <use xlink:href="#DejaVuSans-69" transform="translate(133.203125 0)"/>
      <use xlink:href="#DejaVuSans-6e" transform="translate(160.986328 0)"/>
      <use xlink:href="#DejaVuSans-61" transform="translate(224.365234 0)"/>
     </g>
    </g>
    <g id="line2d_21">
     <path d="M 89.786875 89.039531 
L 104.786875 89.039531 
L 119.786875 89.039531 
" style="fill: none; stroke: #0000ff; stroke-linecap: square"/>
    </g>
    <g id="text_19">
     <!-- India -->
     <g transform="translate(131.786875 94.289531) scale(0.15 -0.15)">
      <use xlink:href="#DejaVuSans-49"/>
      <use xlink:href="#DejaVuSans-6e" transform="translate(29.492188 0)"/>
      <use xlink:href="#DejaVuSans-64" transform="translate(92.871094 0)"/>
      <use xlink:href="#DejaVuSans-69" transform="translate(156.347656 0)"/>
      <use xlink:href="#DejaVuSans-61" transform="translate(184.130859 0)"/>
     </g>
    </g>
    <g id="line2d_22">
     <path d="M 89.786875 111.056719 
L 104.786875 111.056719 
L 119.786875 111.056719 
" style="fill: none; stroke: #ff0000; stroke-linecap: square"/>
    </g>
    <g id="text_20">
     <!-- United States -->
     <g transform="translate(131.786875 116.306719) scale(0.15 -0.15)">
      <defs>
       <path id="DejaVuSans-65" d="M 3597 1894 
L 3597 1613 
L 953 1613 
Q 991 1019 1311 708 
Q 1631 397 2203 397 
Q 2534 397 2845 478 
Q 3156 559 3463 722 
L 3463 178 
Q 3153 47 2828 -22 
Q 2503 -91 2169 -91 
Q 1331 -91 842 396 
Q 353 884 353 1716 
Q 353 2575 817 3079 
Q 1281 3584 2069 3584 
Q 2775 3584 3186 3129 
Q 3597 2675 3597 1894 
z
M 3022 2063 
Q 3016 2534 2758 2815 
Q 2500 3097 2075 3097 
Q 1594 3097 1305 2825 
Q 1016 2553 972 2059 
L 3022 2063 
z
" transform="scale(0.015625)"/>
      </defs>
      <use xlink:href="#DejaVuSans-55"/>
      <use xlink:href="#DejaVuSans-6e" transform="translate(73.193359 0)"/>
      <use xlink:href="#DejaVuSans-69" transform="translate(136.572266 0)"/>
      <use xlink:href="#DejaVuSans-74" transform="translate(164.355469 0)"/>
      <use xlink:href="#DejaVuSans-65" transform="translate(203.564453 0)"/>
      <use xlink:href="#DejaVuSans-64" transform="translate(265.087891 0)"/>
      <use xlink:href="#DejaVuSans-20" transform="translate(328.564453 0)"/>
      <use xlink:href="#DejaVuSans-53" transform="translate(360.351562 0)"/>
      <use xlink:href="#DejaVuSans-74" transform="translate(423.828125 0)"/>
      <use xlink:href="#DejaVuSans-61" transform="translate(463.037109 0)"/>
      <use xlink:href="#DejaVuSans-74" transform="translate(524.316406 0)"/>
      <use xlink:href="#DejaVuSans-65" transform="translate(563.525391 0)"/>
      <use xlink:href="#DejaVuSans-73" transform="translate(625.048828 0)"/>
     </g>
    </g>
   </g>
  </g>
 </g>
 <defs>
  <clipPath id="pe98075392f">
   <rect x="76.286875" y="25.3575" width="669.6" height="391.68"/>
  </clipPath>
 </defs>
</svg>
